<svg xmlns="http://www.w3.org/2000/svg"
shape-rendering="geometricPrecision"
width="4000" height="4000" viewBox="0 0 616 616"><rect width="100%" height="100%" fill="#03172A" />
  <metadata>null</metadata>

<path d="
M 28.943 271.263
C 31.495 271.305 34.069 271.192 36.617 271.389
C 37.068 273.745 36.705 276.6 36.654 278.999
C 36.625 280.405 36.851 282.053 36.574 283.427
C 34.024 283.258 31.396 283.789 28.86 283.529
C 28.109 279.702 29.032 275.171 28.943 271.263 Z"
opacity="1" fill="rgb(119,132,143)" fill-rule="evenodd" />
<path d="
M 28.815 286.861
C 31.376 286.711 34.016 286.609 36.573 286.891
C 36.911 287.797 36.626 289.042 36.612 289.996
C 36.583 291.969 36.623 293.944 36.583 295.917
C 36.571 296.481 36.742 298.313 36.359 298.757
C 33.942 298.828 31.215 299.254 28.829 298.995
C 28.346 295.008 29.013 290.866 28.815 286.861 Z"
opacity="1" fill="rgb(118,131,143)" fill-rule="evenodd" />
<path d="
M 28.761 302.356
C 31.183 302.275 34.099 301.88 36.47 302.451
C 36.663 306.292 36.412 310.13 36.434 313.969
C 36.289 314.328 35.135 314.157 34.777 314.163
C 32.744 314.193 30.696 314.286 28.665 314.255
C 28.871 310.321 28.903 306.291 28.761 302.356 Z"
opacity="1" fill="rgb(122,134,146)" fill-rule="evenodd" />
<path d="
M 28.9 379.34
C 31.307 379.257 34.082 378.939 36.454 379.413
C 36.352 383.253 36.622 387.082 36.379 390.921
C 33.875 391.11 31.318 391.08 28.806 391.129
C 28.884 387.237 29.124 383.22 28.9 379.34 Z"
opacity="1" fill="rgb(125,137,150)" fill-rule="evenodd" />
<path d="
M 39.318 256.414
C 40.856 255.303 44.75 255.728 46.611 255.964
C 46.984 256.273 46.719 258.111 46.714 258.616
C 46.692 260.91 46.687 263.208 46.686 265.502
C 46.685 266.137 46.942 267.424 46.629 267.976
C 44.458 268.445 41.634 268.004 39.415 267.959
C 38.958 266.866 39.212 265.27 39.212 264.084
C 39.212 261.529 39.126 258.963 39.318 256.414 Z"
opacity="1" fill="rgb(119,132,144)" fill-rule="evenodd" />
<path d="
M 39.422 271.334
C 41.833 271.322 44.247 271.092 46.668 271.291
C 47.073 272.259 46.743 273.94 46.745 275
C 46.75 277.781 46.522 280.664 46.799 283.429
C 46.78 283.567 45.259 283.449 44.987 283.446
C 43.211 283.428 41.246 283.619 39.511 283.242
C 39.143 279.285 39.467 275.29 39.422 271.334 Z"
opacity="1" fill="rgb(119,133,146)" fill-rule="evenodd" />
<path d="
M 39.472 287.592
C 39.504 287.404 39.536 287.216 39.568 287.028
C 41.159 286.392 43.303 286.734 45.004 286.783
C 45.539 286.798 46.403 286.65 46.79 287.042
C 46.8 290.894 46.388 294.949 46.777 298.781
C 44.416 298.556 41.963 298.924 39.589 298.821
C 39.276 295.17 39.062 291.238 39.472 287.592 Z"
opacity="1" fill="rgb(119,134,148)" fill-rule="evenodd" />
<path d="
M 39.493 303.118
C 39.614 302.513 39.494 302.852 39.991 302.16
C 42.229 302.108 44.465 302.128 46.702 302.235
C 47.011 303.375 46.761 304.818 46.759 306.001
C 46.755 308.57 47.193 311.672 46.664 314.186
C 46.074 313.938 45.025 314.154 44.385 314.154
C 42.814 314.154 41.24 314.06 39.671 314.094
C 38.799 310.954 39.096 306.355 39.493 303.118 Z"
opacity="1" fill="rgb(124,136,149)" fill-rule="evenodd" />
<path d="
M 39.39 364.253
C 41.119 364.154 42.81 364.179 44.541 364.202
C 45.244 364.211 46.306 364.039 46.892 364.431
C 46.746 367.983 46.232 372.347 46.826 375.839
C 44.385 375.88 41.867 375.697 39.439 375.943
C 38.644 372.284 39.338 367.974 39.39 364.253 Z"
opacity="1" fill="rgb(125,136,146)" fill-rule="evenodd" />
<path d="
M 39.454 380.619
C 39.579 380.001 39.535 380.362 39.519 379.527
C 41.596 379.03 44.786 378.979 46.867 379.49
C 46.703 383.271 46.756 387.121 46.859 390.907
C 44.859 391.565 41.469 391.313 39.408 391.03
C 39.22 387.623 39.152 384.019 39.454 380.619 Z"
opacity="1" fill="rgb(124,135,145)" fill-rule="evenodd" />
<path d="
M 49.84 256.515
C 49.9 256.337 49.959 256.159 50.018 255.981
C 52.38 255.937 55.026 255.453 57.328 256.156
C 56.962 259.846 56.921 264.215 57.334 267.903
C 56.863 268.226 56.157 268.003 55.62 268.002
C 53.808 267.999 51.779 268.234 50.02 267.766
C 49.626 264.076 49.687 260.22 49.84 256.515 Z"
opacity="1" fill="rgb(119,133,144)" fill-rule="evenodd" />
<path d="
M 49.985 271.33
C 52.368 271.094 54.772 271.137 57.162 271.285
C 57.627 272.115 57.264 274.027 57.26 274.998
C 57.25 277.878 57.237 280.76 57.296 283.636
C 54.883 283.526 52.398 283.822 50.003 283.519
C 49.721 279.492 49.721 275.355 49.985 271.33 Z"
opacity="1" fill="rgb(122,135,148)" fill-rule="evenodd" />
<path d="
M 49.933 287.576
C 49.955 287.365 49.977 287.153 49.999 286.942
C 51.762 286.702 55.743 286.166 57.329 287.046
C 57.271 290.871 56.785 295.063 57.31 298.858
C 55.208 299.316 52.04 299.142 49.876 299.066
C 49.722 295.323 49.441 291.295 49.933 287.576 Z"
opacity="1" fill="rgb(119,133,149)" fill-rule="evenodd" />
<path d="
M 49.946 302.448
C 51.389 301.261 55.391 302.208 57.227 302.189
C 57.083 306.047 56.59 310.441 57.125 314.261
C 54.81 314.175 52.245 314.457 49.972 314.039
C 49.741 310.216 49.695 306.27 49.946 302.448 Z"
opacity="1" fill="rgb(125,136,150)" fill-rule="evenodd" />
<path d="
M 49.983 364.381
C 52.371 364.229 54.742 364.34 57.132 364.368
C 57.482 368.126 56.661 372.095 57.215 375.832
C 54.97 376.152 52.342 375.886 50.078 375.764
C 50.052 371.977 50.057 368.167 49.983 364.381 Z"
opacity="1" fill="rgb(125,138,149)" fill-rule="evenodd" />
<path d="
M 49.865 380.041
C 49.92 379.828 49.975 379.615 50.031 379.402
C 51.865 379.271 53.674 379.303 55.512 379.333
C 55.988 379.341 56.934 379.196 57.272 379.526
C 57.269 382.348 57.201 385.177 57.207 388.004
C 57.208 388.765 57.541 390.35 57.16 390.996
C 54.74 391.336 52.222 390.861 49.787 391.153
C 49.838 387.466 49.524 383.714 49.865 380.041 Z"
opacity="1" fill="rgb(124,135,147)" fill-rule="evenodd" />
<path d="
M 50.128 240.7
C 52.476 240.583 54.814 240.781 57.162 240.806
C 57.644 241.519 57.362 243.129 57.375 243.992
C 57.42 246.899 57.458 249.804 57.513 252.71
C 55.134 252.919 52.699 252.574 50.323 252.553
C 49.189 248.975 50.253 244.405 50.128 240.7 Z"
opacity="1" fill="rgb(122,134,144)" fill-rule="evenodd" />
<path d="
M 60.397 240.949
C 61.839 239.848 65.902 240.652 67.706 240.731
C 68.123 241.758 67.809 243.382 67.812 244.496
C 67.819 247.219 67.591 249.997 67.824 252.709
C 65.396 252.411 62.934 252.938 60.521 252.393
C 60.102 248.63 60.368 244.729 60.397 240.949 Z"
opacity="1" fill="rgb(122,136,147)" fill-rule="evenodd" />
<path d="
M 60.418 256.563
C 60.477 256.371 60.537 256.178 60.596 255.986
C 62.562 255.89 65.969 255.237 67.787 256.074
C 67.651 259.79 67.066 264.285 67.652 267.949
C 65.263 268.065 62.885 267.855 60.498 267.878
C 60.105 266.941 60.319 265.563 60.306 264.544
C 60.271 261.931 60.065 259.155 60.418 256.563 Z"
opacity="1" fill="rgb(119,134,146)" fill-rule="evenodd" />
<path d="
M 60.46 271.326
C 62.775 271.194 65.22 270.994 67.529 271.295
C 68.004 275.355 67.004 279.62 67.657 283.645
C 67.332 283.347 66.392 283.516 65.996 283.507
C 64.274 283.469 62.023 283.949 60.39 283.543
C 60.365 279.484 60.146 275.374 60.46 271.326 Z"
opacity="1" fill="rgb(122,136,148)" fill-rule="evenodd" />
<path d="
M 60.344 287.536
C 60.484 287.36 60.623 287.185 60.763 287.009
C 63.018 286.84 65.342 286.722 67.599 286.906
C 68.07 287.702 67.722 289.559 67.716 290.5
C 67.7 293.274 67.711 296.049 67.675 298.823
C 65.296 299.007 62.79 298.542 60.438 298.891
C 60.039 297.955 60.288 296.565 60.268 295.542
C 60.213 292.881 60.179 290.193 60.344 287.536 Z"
opacity="1" fill="rgb(123,136,148)" fill-rule="evenodd" />
<path d="
M 60.389 302.346
C 62.654 301.776 65.373 302.105 67.695 302.218
C 67.577 306.196 67.431 310.32 67.665 314.292
C 65.839 314.075 63.804 314.26 61.956 314.251
C 61.459 314.249 60.738 314.418 60.307 314.146
C 60.391 310.211 60.164 306.281 60.389 302.346 Z"
opacity="1" fill="rgb(120,134,147)" fill-rule="evenodd" />
<path d="
M 60.298 364.302
C 62.738 363.94 65.296 364.111 67.759 364.13
C 67.902 367.935 67.203 372.159 67.853 375.903
C 65.425 375.961 62.881 375.68 60.471 375.949
C 59.951 372.171 60.155 368.104 60.298 364.302 Z"
opacity="1" fill="rgb(120,136,148)" fill-rule="evenodd" />
<path d="
M 60.32 380.026
C 60.41 379.821 60.501 379.617 60.591 379.413
C 62.922 379.244 65.326 379.177 67.66 379.351
C 68.286 382.041 67.625 385.458 67.666 388.236
C 67.676 388.91 67.967 390.419 67.524 390.987
C 65.101 391.117 62.66 390.959 60.23 391.103
C 60.25 387.423 59.958 383.694 60.32 380.026 Z"
opacity="1" fill="rgb(120,135,148)" fill-rule="evenodd" />
<path d="
M 70.52 349.627
C 70.594 348.972 70.493 349.319 70.919 348.62
C 73.247 348.679 75.652 348.492 77.956 348.891
C 77.835 352.766 78.017 356.711 78.004 360.597
C 75.948 361.171 72.804 360.765 70.661 360.632
C 70.603 356.965 70.506 353.295 70.52 349.627 Z"
opacity="1" fill="rgb(123,135,146)" fill-rule="evenodd" />
<path d="
M 70.779 225.388
C 72.538 225.296 74.285 225.343 76.044 225.341
C 76.688 225.34 77.758 225.159 78.312 225.467
C 78.306 228.142 78.25 230.82 78.17 233.496
C 78.134 234.711 78.366 236.23 78.072 237.408
C 76.195 237.366 72.305 238.088 70.698 237.214
C 70.779 233.352 70.147 229.203 70.779 225.388 Z"
opacity="1" fill="rgb(124,135,145)" fill-rule="evenodd" />
<path d="
M 70.948 241.602
C 71.03 240.978 71.003 241.338 70.987 240.517
C 73.342 240.199 75.743 240.425 78.115 240.384
C 78.357 241.314 78.098 242.534 78.102 243.501
C 78.114 246.489 77.859 249.519 77.97 252.497
C 76.426 252.861 74.602 252.648 73.026 252.64
C 72.604 252.638 71.303 252.76 70.991 252.537
C 70.678 249.057 70.554 245.071 70.948 241.602 Z"
opacity="1" fill="rgb(124,136,147)" fill-rule="evenodd" />
<path d="
M 70.987 256.593
C 71.001 256.388 71.014 256.184 71.028 255.979
C 73.395 255.891 75.756 255.844 78.128 255.919
C 78.553 256.742 78.17 258.549 78.169 259.503
C 78.164 262.35 77.921 265.226 78.007 268.067
C 77.758 268.435 76.585 268.161 76.193 268.143
C 74.455 268.063 72.73 267.884 70.987 267.935
C 70.448 264.494 70.53 260.037 70.987 256.593 Z"
opacity="1" fill="rgb(120,135,147)" fill-rule="evenodd" />
<path d="
M 70.911 270.942
C 73.179 270.916 75.828 270.63 78.033 271.225
C 78.287 275.302 78.097 279.527 77.943 283.607
C 77.467 283.866 76.431 283.648 75.898 283.647
C 74.182 283.644 72.459 283.61 70.747 283.624
C 70.589 280.945 70.667 278.249 70.652 275.566
C 70.643 274.101 70.386 272.326 70.911 270.942 Z"
opacity="1" fill="rgb(117,132,145)" fill-rule="evenodd" />
<path d="
M 70.834 286.913
C 72.884 286.92 76.262 286.193 78.133 287.129
C 78.336 289.649 78.159 292.183 78.173 294.711
C 78.18 296.008 78.439 297.675 78.081 298.934
C 75.717 298.903 73.268 298.744 70.913 298.941
C 70.475 298.001 70.74 296.581 70.73 295.545
C 70.703 292.674 70.59 289.775 70.834 286.913 Z"
opacity="1" fill="rgb(123,136,146)" fill-rule="evenodd" />
<path d="
M 70.739 302.28
C 73.126 302.016 75.668 302.018 78.058 302.279
C 78.25 305.262 78.128 308.38 78.037 311.37
C 78.021 311.886 78.225 313.945 77.865 314.267
C 75.491 314.156 73.02 314.544 70.661 314.202
C 70.699 310.228 70.623 306.254 70.739 302.28 Z"
opacity="1" fill="rgb(126,139,149)" fill-rule="evenodd" />
<path d="
M 70.642 317.635
C 72.891 317.595 75.827 317.161 77.977 317.905
C 77.91 320.635 78.052 323.371 78.052 326.105
C 78.052 327.291 78.27 328.727 77.862 329.86
C 75.469 329.663 73.014 330.033 70.63 329.778
C 70.695 325.736 70.603 321.676 70.642 317.635 Z"
opacity="1" fill="rgb(128,136,145)" fill-rule="evenodd" />
<path d="
M 70.872 363.905
C 73.296 363.808 75.692 363.774 78.118 363.834
C 78.635 367.614 78.321 372.156 78.03 375.962
C 75.68 375.928 73.279 375.79 70.933 375.942
C 70.498 374.999 70.744 373.581 70.731 372.544
C 70.698 369.798 70.224 366.582 70.872 363.905 Z"
opacity="1" fill="rgb(121,137,147)" fill-rule="evenodd" />
<path d="
M 70.789 379.32
C 73.23 379.267 75.663 379.295 78.105 379.372
C 78.753 381.875 78.13 385.402 78.118 388.005
C 78.115 388.885 78.316 390.293 77.801 391.043
C 75.444 391.046 73.073 391.061 70.714 391.106
C 70.511 387.345 70.083 383.032 70.789 379.32 Z"
opacity="1" fill="rgb(123,134,145)" fill-rule="evenodd" />
<path d="
M 81.371 225.336
C 83.751 225.295 86.169 225.158 88.547 225.388
C 89.276 229.17 88.464 233.466 88.665 237.318
C 88.248 237.122 87.215 237.328 86.746 237.32
C 85.01 237.293 83.247 237.227 81.516 237.309
C 81.041 236.823 81.326 235.184 81.307 234.489
C 81.222 231.431 81.249 228.389 81.371 225.336 Z"
opacity="1" fill="rgb(120,134,146)" fill-rule="evenodd" />
<path d="
M 81.34 241.05
C 81.363 240.839 81.386 240.628 81.409 240.418
C 83.058 240.273 87.333 239.62 88.483 240.911
C 88.764 244.733 88.495 248.582 88.591 252.417
C 86.45 253.078 83.599 252.442 81.363 252.501
C 80.709 249.122 80.854 244.446 81.34 241.05 Z"
opacity="1" fill="rgb(124,136,147)" fill-rule="evenodd" />
<path d="
M 81.32 255.802
C 83.626 255.584 86.162 255.632 88.46 255.938
C 88.277 259.941 88.636 263.946 88.39 267.953
C 86.057 268.174 83.612 268.169 81.269 268.091
C 81.236 263.993 81.11 259.893 81.32 255.802 Z"
opacity="1" fill="rgb(122,135,147)" fill-rule="evenodd" />
<path d="
M 81.44 286.981
C 83.559 286.902 86.343 286.449 88.396 287.029
C 88.328 290.979 88.291 294.969 88.415 298.92
C 86.013 298.859 83.612 299.142 81.222 299.091
C 81.181 296.379 81.165 293.667 81.148 290.953
C 81.141 289.757 80.898 288.057 81.44 286.981 Z"
opacity="1" fill="rgb(122,136,146)" fill-rule="evenodd" />
<path d="
M 81.298 302.322
C 82.918 301.822 84.822 302.111 86.506 302.166
C 87.136 302.187 87.911 302.067 88.434 302.435
C 88.383 306.401 88.589 310.403 88.39 314.363
C 86.106 314.222 83.656 314.252 81.377 314.445
C 80.936 313.356 81.207 311.76 81.198 310.578
C 81.177 307.819 81.08 305.074 81.298 302.322 Z"
opacity="1" fill="rgb(121,137,151)" fill-rule="evenodd" />
<path d="
M 81.375 317.841
C 82.988 317.313 86.86 317.202 88.432 317.92
C 88.374 321.848 88.069 325.909 88.307 329.826
C 86.016 329.864 83.692 329.643 81.413 329.911
C 81.02 328.816 81.271 327.255 81.248 326.079
C 81.195 323.343 81.063 320.563 81.375 317.841 Z"
opacity="1" fill="rgb(124,136,148)" fill-rule="evenodd" />
<path d="
M 81.264 348.759
C 83.446 348.66 86.256 348.413 88.38 348.952
C 88.376 352.826 88.339 356.721 88.519 360.593
C 86.347 361.078 83.449 360.742 81.212 360.664
C 81.201 356.693 81.185 352.729 81.264 348.759 Z"
opacity="1" fill="rgb(120,135,148)" fill-rule="evenodd" />
<path d="
M 81.318 364.537
C 81.414 364.331 81.511 364.125 81.607 363.919
C 83.616 363.757 86.428 363.37 88.373 363.979
C 88.208 367.913 88.216 371.98 88.359 375.914
C 86.062 375.879 83.704 375.813 81.41 375.937
C 80.884 375.069 81.164 373.55 81.157 372.544
C 81.139 369.891 80.975 367.172 81.318 364.537 Z"
opacity="1" fill="rgb(120,137,148)" fill-rule="evenodd" />
<path d="
M 81.317 379.254
C 83.368 379.239 86.442 378.726 88.372 379.464
C 88.367 383.075 89.077 387.601 88.339 391.115
C 85.945 391.133 83.546 391.031 81.152 391.134
C 81.095 387.33 80.433 382.969 81.317 379.254 Z"
opacity="1" fill="rgb(120,133,147)" fill-rule="evenodd" />
<path d="
M 91.497 288.122
C 91.577 287.53 91.553 287.871 91.526 287.096
C 93.299 286.302 97.029 286.726 98.943 287.032
C 98.679 290.858 98.603 294.971 98.834 298.8
C 96.945 298.814 93.251 299.548 91.622 298.624
C 91.53 295.129 91.461 291.62 91.497 288.122 Z"
opacity="1" fill="rgb(124,137,148)" fill-rule="evenodd" />
<path d="
M 91.518 303.109
C 91.543 302.942 91.567 302.774 91.591 302.607
C 93.263 301.784 97.116 301.901 98.91 302.47
C 98.818 306.405 98.734 310.394 98.838 314.33
C 97.024 314.323 93.209 315.049 91.663 314.14
C 91.587 310.475 91.659 306.764 91.518 303.109 Z"
opacity="1" fill="rgb(122,138,151)" fill-rule="evenodd" />
<path d="
M 91.493 322.116
C 91.666 320.65 91.485 319.168 91.716 317.699
C 94.054 317.682 96.426 317.532 98.759 317.752
C 99.132 318.588 98.797 320.068 98.792 320.999
C 98.775 323.885 98.475 326.972 98.776 329.837
C 96.664 330.046 93.689 330.154 91.616 329.728
C 91.655 327.194 91.448 324.651 91.493 322.116 Z"
opacity="1" fill="rgb(124,136,149)" fill-rule="evenodd" />
<path d="
M 91.404 348.8
C 93.859 348.579 96.531 348.61 98.978 348.903
C 98.691 352.728 99.46 356.82 98.939 360.595
C 96.603 360.662 94.241 360.587 91.91 360.471
C 91.332 359.596 91.461 357.985 91.447 356.929
C 91.41 354.214 91.347 351.515 91.404 348.8 Z"
opacity="1" fill="rgb(118,135,148)" fill-rule="evenodd" />
<path d="
M 91.512 364.582
C 91.551 364.387 91.59 364.193 91.629 363.999
C 94.04 363.811 96.562 363.7 98.971 363.985
C 98.749 366.801 98.872 369.721 98.934 372.55
C 98.95 373.287 99.295 375.361 98.81 375.911
C 96.421 375.771 93.993 375.904 91.597 375.83
C 91.089 372.364 90.985 368.044 91.512 364.582 Z"
opacity="1" fill="rgb(118,135,148)" fill-rule="evenodd" />
<path d="
M 91.424 380.616
C 91.575 379.993 91.523 380.357 91.496 379.514
C 93.382 378.989 96.971 378.909 98.85 379.494
C 98.639 383.175 98.486 387.225 98.844 390.893
C 96.381 391.212 93.842 390.859 91.368 391.03
C 91.227 387.609 91.128 384.028 91.424 380.616 Z"
opacity="1" fill="rgb(121,135,149)" fill-rule="evenodd" />
<path d="
M 91.784 225.304
C 94.245 225.295 96.698 225.282 99.159 225.359
C 99.515 226.33 99.217 227.955 99.202 229
C 99.161 231.739 98.94 234.56 99.131 237.292
C 97.133 237.796 93.738 237.506 91.703 237.261
C 91.715 233.463 90.921 229.006 91.784 225.304 Z"
opacity="1" fill="rgb(125,136,147)" fill-rule="evenodd" />
<path d="
M 91.64 240.653
C 93.944 240.452 96.7 240.124 98.955 240.747
C 99.081 244.633 98.737 248.562 98.916 252.457
C 96.606 252.349 94.257 252.447 91.943 252.451
C 91.326 251.952 91.578 250.278 91.579 249.492
C 91.583 246.545 91.634 243.596 91.64 240.653 Z"
opacity="1" fill="rgb(125,137,149)" fill-rule="evenodd" />
<path d="
M 91.838 255.832
C 93.907 255.761 96.86 255.325 98.826 256.039
C 98.749 259.984 98.768 263.933 98.797 267.881
C 98.344 268.234 97.526 267.956 96.995 267.95
C 95.301 267.93 93.566 267.937 91.864 268
C 91.285 267.298 91.53 265.65 91.541 264.76
C 91.576 261.98 91.017 258.485 91.838 255.832 Z"
opacity="1" fill="rgb(121,134,146)" fill-rule="evenodd" />
<path d="
M 101.979 257.618
C 102.05 257.126 102.105 256.655 102.13 256.156
C 103.544 255.276 107.788 255.689 109.437 255.979
C 109.499 259.915 109.072 263.913 109.298 267.841
C 107.344 268.036 103.912 268.427 102.061 267.826
C 102.028 264.425 101.922 261.027 101.979 257.618 Z"
opacity="1" fill="rgb(120,132,143)" fill-rule="evenodd" />
<path d="
M 101.984 308.116
C 102.195 306.188 101.664 304.113 102.265 302.247
C 103.995 302.119 105.735 302.147 107.469 302.18
C 108.009 302.191 109.015 302.064 109.415 302.431
C 109.232 306.355 109.148 310.419 109.354 314.344
C 107.465 314.406 103.677 315.049 102.051 314.073
C 101.927 312.093 101.928 310.101 101.984 308.116 Z"
opacity="1" fill="rgb(125,138,150)" fill-rule="evenodd" />
<path d="
M 102.002 318.599
C 102.016 318.422 102.03 318.246 102.045 318.07
C 103.856 317.325 107.506 317.352 109.392 317.957
C 109.239 321.832 109.001 326.032 109.337 329.89
C 107.165 329.998 104.17 330.298 102.071 329.75
C 102.244 326.048 101.755 322.317 102.002 318.599 Z"
opacity="1" fill="rgb(126,137,148)" fill-rule="evenodd" />
<path d="
M 102.002 349.601
C 102.003 349.398 102.003 349.194 102.003 348.991
C 103.773 348.565 105.702 348.739 107.512 348.8
C 108.02 348.817 108.891 348.684 109.292 348.989
C 109.331 351.823 109.223 354.663 109.231 357.5
C 109.233 358.09 109.583 360.112 109.225 360.495
C 106.921 360.673 104.618 360.412 102.324 360.5
C 101.793 359.499 102.019 357.997 102.018 356.881
C 102.018 354.451 101.918 352.028 102.002 349.601 Z"
opacity="1" fill="rgb(122,137,148)" fill-rule="evenodd" />
<path d="
M 101.934 379.342
C 103.932 379.346 107.501 378.601 109.316 379.523
C 109.228 383.385 109.47 387.284 109.309 391.14
C 106.894 391.223 104.449 391.021 102.04 391.202
C 101.539 387.294 101.906 383.261 101.934 379.342 Z"
opacity="1" fill="rgb(121,134,146)" fill-rule="evenodd" />
<path d="
M 102.26 225.284
C 104.67 225.189 107.15 225.178 109.554 225.39
C 110.333 229.024 109.685 233.687 109.599 237.405
C 107.232 237.361 104.778 237.23 102.419 237.416
C 102.006 236.486 102.283 235.069 102.252 234.045
C 102.165 231.125 102.241 228.203 102.26 225.284 Z"
opacity="1" fill="rgb(123,135,146)" fill-rule="evenodd" />
<path d="
M 102.317 240.914
C 104.21 239.96 107.512 240.282 109.613 240.442
C 110.011 241.012 109.669 242.771 109.66 243.506
C 109.634 245.504 109.606 247.501 109.582 249.498
C 109.57 250.416 109.782 251.599 109.413 252.457
C 107.114 252.291 104.721 252.394 102.412 252.422
C 101.883 251.849 102.167 250.277 102.159 249.495
C 102.13 246.631 102.112 243.768 102.317 240.914 Z"
opacity="1" fill="rgb(125,139,150)" fill-rule="evenodd" />
<path d="
M 102.392 286.892
C 104.458 286.826 107.393 286.396 109.368 287.027
C 109.298 290.949 109.105 295.006 109.408 298.92
C 107.079 298.895 104.741 298.866 102.414 298.906
C 101.776 298.385 102.046 296.787 102.048 295.983
C 102.052 293.461 101.254 289.144 102.392 286.892 Z"
opacity="1" fill="rgb(124,136,147)" fill-rule="evenodd" />
<path d="
M 102.409 363.836
C 104.116 363.777 105.807 363.778 107.515 363.808
C 108.03 363.817 108.901 363.684 109.293 364.024
C 109.112 367.927 109.024 371.993 109.278 375.894
C 107.586 376.637 104.303 375.888 102.436 375.921
C 101.802 375.501 102.024 373.751 102.014 372.994
C 101.979 370.237 101.355 366.412 102.409 363.836 Z"
opacity="1" fill="rgb(125,140,150)" fill-rule="evenodd" />
<path d="
M 112.504 298.132
C 112.851 294.572 112.613 290.783 112.568 287.207
C 112.978 286.633 113.766 286.779 114.441 286.769
C 116.171 286.745 117.976 286.702 119.696 286.873
C 120.167 287.677 119.807 289.545 119.814 290.497
C 119.835 293.291 119.714 296.118 119.875 298.907
C 117.46 298.954 114.994 298.903 112.586 299.025
C 112.516 298.414 112.542 298.712 112.504 298.132 Z"
opacity="1" fill="rgb(120,135,148)" fill-rule="evenodd" />
<path d="
M 112.43 302.387
C 114.58 301.672 117.466 302.148 119.714 302.222
C 119.864 306.257 119.421 310.368 119.841 314.385
C 117.707 314.514 114.538 314.915 112.511 314.225
C 112.181 310.31 112.361 306.309 112.43 302.387 Z"
opacity="1" fill="rgb(120,136,149)" fill-rule="evenodd" />
<path d="
M 112.461 317.87
C 114.677 317.333 117.422 317.554 119.684 317.765
C 120.024 319.737 119.725 322.003 119.701 324.003
C 119.677 326.003 119.924 328.108 119.734 330.092
C 117.376 329.931 114.976 330.074 112.609 329.966
C 112.066 326.044 112.251 321.815 112.461 317.87 Z"
opacity="1" fill="rgb(123,136,149)" fill-rule="evenodd" />
<path d="
M 112.354 348.863
C 114.546 348.074 117.451 348.604 119.758 348.639
C 119.65 352.607 120.087 356.687 119.765 360.637
C 117.532 360.129 114.606 360.648 112.313 360.62
C 112.421 356.703 112.215 352.782 112.354 348.863 Z"
opacity="1" fill="rgb(120,136,146)" fill-rule="evenodd" />
<path d="
M 112.457 363.804
C 114.841 363.844 117.244 363.632 119.634 363.863
C 120.107 364.582 119.733 366.613 119.731 367.501
C 119.727 370.389 119.592 373.321 119.827 376.199
C 117.413 376.031 114.995 376.223 112.58 375.995
C 111.957 372.072 112.276 367.757 112.457 363.804 Z"
opacity="1" fill="rgb(122,138,150)" fill-rule="evenodd" />
<path d="
M 112.308 379.282
C 114.713 379.108 117.217 379.142 119.619 379.373
C 120.053 382.093 119.542 385.238 119.56 388.004
C 119.566 388.853 119.868 390.358 119.281 391.032
C 117.544 391.153 115.82 391.164 114.08 391.194
C 113.568 391.202 112.753 391.418 112.346 391.087
C 112.304 387.148 112.051 383.221 112.308 379.282 Z"
opacity="1" fill="rgb(118,134,150)" fill-rule="evenodd" />
<path d="
M 112.753 225.284
C 115.126 225.305 117.578 225.11 119.935 225.459
C 119.747 229.309 119.632 233.467 119.892 237.314
C 117.523 237.167 115.027 237.6 112.684 237.244
C 112.791 233.309 112.161 229.183 112.753 225.284 Z"
opacity="1" fill="rgb(122,135,148)" fill-rule="evenodd" />
<path d="
M 112.807 240.346
C 115.209 240.403 117.618 240.258 120.022 240.436
C 119.894 243.32 120.129 246.301 120.127 249.203
C 120.127 249.951 120.437 251.712 120.049 252.369
C 117.659 252.457 115.255 252.234 112.87 252.471
C 112.503 251.322 112.788 249.795 112.774 248.579
C 112.741 245.837 112.855 243.078 112.807 240.346 Z"
opacity="1" fill="rgb(120,133,147)" fill-rule="evenodd" />
<path d="
M 123 287.611
C 123.013 287.42 123.025 287.229 123.037 287.038
C 125.058 286.175 127.999 286.804 130.183 286.781
C 131.195 290.565 129.645 294.936 130.286 298.781
C 128.33 299.013 124.876 299.368 123.026 298.705
C 122.796 295.073 122.734 291.239 123 287.611 Z"
opacity="1" fill="rgb(122,137,152)" fill-rule="evenodd" />
<path d="
M 122.915 302.343
C 124.778 302.328 126.638 302.241 128.509 302.262
C 129.069 302.269 129.917 302.106 130.345 302.481
C 130.431 306.421 130.22 310.376 130.37 314.315
C 127.998 314.247 125.313 314.109 122.969 314.443
C 122.184 310.689 122.836 306.16 122.915 302.343 Z"
opacity="1" fill="rgb(123,136,148)" fill-rule="evenodd" />
<path d="
M 122.973 319.619
C 123.045 318.981 123.095 318.384 123.268 317.763
C 125.211 317.676 128.616 317.093 130.386 317.952
C 130.354 321.852 130.469 325.782 130.268 329.676
C 127.903 329.568 125.442 329.61 123.076 329.685
C 122.67 326.402 122.824 322.918 122.973 319.619 Z"
opacity="1" fill="rgb(123,136,148)" fill-rule="evenodd" />
<path d="
M 122.633 333.173
C 125.157 332.968 127.682 333.152 130.208 333.198
C 131.052 337.02 129.93 341.434 130.238 345.341
C 129.765 345.559 128.766 345.382 128.248 345.371
C 126.392 345.328 124.479 345.513 122.64 345.262
C 122.553 341.225 122.612 337.204 122.633 333.173 Z"
opacity="1" fill="rgb(120,133,144)" fill-rule="evenodd" />
<path d="
M 122.801 348.829
C 124.877 348.777 128.45 348.029 130.358 348.966
C 130.282 352.847 130.289 356.74 130.276 360.621
C 127.872 360.584 125.258 360.259 122.874 360.51
C 122.24 356.756 122.772 352.617 122.801 348.829 Z"
opacity="1" fill="rgb(121,137,149)" fill-rule="evenodd" />
<path d="
M 122.924 364.567
C 122.978 364.364 123.033 364.16 123.087 363.957
C 124.757 363.896 126.41 363.881 128.083 363.878
C 128.71 363.877 129.764 363.689 130.281 364.049
C 130.081 367.601 129.607 372.281 130.273 375.77
C 127.836 376.071 125.327 375.634 122.881 375.971
C 122.579 374.774 122.817 373.318 122.815 372.077
C 122.812 369.59 122.66 367.041 122.924 364.567 Z"
opacity="1" fill="rgb(123,138,151)" fill-rule="evenodd" />
<path d="
M 123.303 225.313
C 125.68 225.277 128.05 225.344 130.426 225.342
C 130.829 227.824 130.481 230.326 130.43 232.826
C 130.401 234.243 130.691 235.879 130.386 237.265
C 128.013 237.236 125.484 237.566 123.135 237.245
C 123.273 233.328 122.572 229.185 123.303 225.313 Z"
opacity="1" fill="rgb(124,136,148)" fill-rule="evenodd" />
<path d="
M 123.525 240.427
C 125.806 240.389 128.239 240.201 130.503 240.473
C 130.26 244.348 131.064 248.492 130.375 252.325
C 128.453 252.339 124.852 253.013 123.142 252.238
C 123.206 249.49 123.136 246.693 123.049 243.944
C 123.013 242.834 122.752 241.296 123.525 240.427 Z"
opacity="1" fill="rgb(121,135,149)" fill-rule="evenodd" />
<path d="
M 133.514 226.114
C 133.522 225.948 133.53 225.781 133.537 225.614
C 135.208 224.608 138.995 225.174 140.939 225.415
C 140.722 229.322 140.747 233.347 140.837 237.26
C 138.633 237.245 135.757 237.831 133.651 237.174
C 133.718 233.495 133.503 229.797 133.514 226.114 Z"
opacity="1" fill="rgb(125,136,149)" fill-rule="evenodd" />
<path d="
M 133.502 241.084
C 133.513 240.906 133.524 240.728 133.535 240.55
C 135.565 240.234 138.784 239.91 140.714 240.688
C 140.636 244.486 140.455 248.432 140.699 252.225
C 138.49 252.03 135.662 252.077 133.467 252.41
C 132.885 249.094 133.033 244.411 133.502 241.084 Z"
opacity="1" fill="rgb(124,135,147)" fill-rule="evenodd" />
<path d="
M 133.401 287.572
C 133.471 287.355 133.54 287.138 133.61 286.921
C 135.411 286.876 137.203 286.832 139.005 286.839
C 139.533 286.841 140.382 286.677 140.794 287.03
C 140.781 290.962 140.694 294.901 140.708 298.837
C 138.879 299.277 135.207 299.324 133.343 299.057
C 133.512 295.238 133.048 291.39 133.401 287.572 Z"
opacity="1" fill="rgb(121,135,148)" fill-rule="evenodd" />
<path d="
M 133.487 302.435
C 133.996 301.98 134.846 302.148 135.513 302.137
C 137.219 302.109 138.957 302.144 140.657 302.282
C 140.9 306.285 140.493 310.312 140.665 314.317
C 138.293 314.27 135.897 314.465 133.534 314.26
C 133.164 310.383 133.314 306.32 133.487 302.435 Z"
opacity="1" fill="rgb(124,137,150)" fill-rule="evenodd" />
<path d="
M 133.485 318.606
C 133.513 318.422 133.542 318.238 133.57 318.054
C 135.495 317.222 138.557 317.576 140.622 317.836
C 141.267 321.585 140.583 325.935 140.632 329.749
C 140.208 329.576 139.406 329.77 138.951 329.766
C 137.147 329.747 135.331 329.718 133.531 329.749
C 133.166 326.184 133.067 322.166 133.485 318.606 Z"
opacity="1" fill="rgb(125,139,150)" fill-rule="evenodd" />
<path d="
M 133.471 333.534
C 133.61 333.386 133.749 333.238 133.889 333.09
C 136.181 332.839 138.415 333.031 140.698 333.21
C 140.542 337.157 140.422 341.34 140.714 345.281
C 138.41 345.023 135.828 345.217 133.505 345.247
C 133.062 341.519 133.043 337.259 133.471 333.534 Z"
opacity="1" fill="rgb(125,140,151)" fill-rule="evenodd" />
<path d="
M 133.436 348.832
C 135.269 348.492 138.654 348.218 140.403 348.928
C 140.427 352.772 140.649 356.727 140.449 360.561
C 138.669 360.958 135.119 361.074 133.327 360.637
C 133.317 356.704 133.096 352.755 133.436 348.832 Z"
opacity="1" fill="rgb(126,140,153)" fill-rule="evenodd" />
<path d="
M 133.428 363.817
C 135.77 363.891 138.176 363.603 140.511 363.945
C 140.575 366.77 140.602 369.602 140.594 372.434
C 140.592 373.171 140.906 375.161 140.354 375.741
C 138.081 375.719 135.67 375.644 133.414 375.943
C 132.693 372.173 133.226 367.633 133.428 363.817 Z"
opacity="1" fill="rgb(127,139,150)" fill-rule="evenodd" />
<path d="
M 143.927 241.009
C 144.092 240.856 144.256 240.704 144.421 240.551
C 146.452 240.421 149.401 239.885 151.347 240.521
C 150.96 244.204 150.923 248.606 151.322 252.29
C 148.906 252.456 146.469 252.134 144.052 252.243
C 144.079 248.506 143.651 244.752 143.927 241.009 Z"
opacity="1" fill="rgb(119,133,148)" fill-rule="evenodd" />
<path d="
M 143.931 286.844
C 146.351 286.61 148.768 286.717 151.191 286.622
C 151.098 290.692 151.221 294.84 151.365 298.913
C 148.92 299.026 146.3 299.291 143.865 299.13
C 143.889 295.032 143.841 290.939 143.931 286.844 Z"
opacity="1" fill="rgb(120,135,148)" fill-rule="evenodd" />
<path d="
M 143.943 302.451
C 145.854 301.356 149.093 302.182 151.245 302.119
C 151.808 306.123 150.879 310.326 151.339 314.366
C 149.112 314.547 146.216 314.732 144.034 314.232
C 143.786 310.328 143.777 306.361 143.943 302.451 Z"
opacity="1" fill="rgb(122,137,149)" fill-rule="evenodd" />
<path d="
M 143.911 317.804
C 146.285 317.342 148.734 317.682 151.127 317.767
C 151.209 321.76 150.976 325.775 151.142 329.765
C 149.301 330.01 147.312 329.746 145.455 329.76
C 145.058 329.763 144.22 329.931 143.917 329.65
C 143.695 325.72 143.685 321.732 143.911 317.804 Z"
opacity="1" fill="rgb(122,137,148)" fill-rule="evenodd" />
<path d="
M 143.991 333.585
C 144.005 333.409 144.019 333.233 144.033 333.056
C 146.246 332.58 148.703 332.797 150.938 333.036
C 151.479 333.556 151.134 335.26 151.129 336.003
C 151.109 339.071 151.201 342.143 151.137 345.209
C 148.796 345.153 146.362 345.07 144.026 345.209
C 143.441 341.681 143.468 337.11 143.991 333.585 Z"
opacity="1" fill="rgb(124,138,148)" fill-rule="evenodd" />
<path d="
M 143.992 348.503
C 146.335 348.396 148.779 348.235 151.087 348.743
C 150.951 352.707 151.084 356.658 151.054 360.613
C 148.995 361.177 145.903 360.759 143.757 360.647
C 143.744 356.709 143.404 352.717 143.719 348.785
C 143.81 348.691 143.901 348.597 143.992 348.503 Z"
opacity="1" fill="rgb(127,140,152)" fill-rule="evenodd" />
<path d="
M 143.783 363.758
C 146.233 363.58 148.681 363.702 151.134 363.805
C 151.553 367.709 151.156 371.885 151.151 375.813
C 148.749 375.951 146.329 375.744 143.928 375.926
C 143.475 375.071 143.766 373.528 143.749 372.546
C 143.697 369.613 143.719 366.689 143.783 363.758 Z"
opacity="1" fill="rgb(124,139,154)" fill-rule="evenodd" />
<path d="
M 144.285 225.292
C 146.03 225.283 149.823 224.546 151.332 225.447
C 151.441 229.383 151.171 233.33 151.313 237.266
C 148.917 237.239 146.521 237.279 144.126 237.253
C 144.237 233.427 143.289 229.016 144.285 225.292 Z"
opacity="1" fill="rgb(125,138,150)" fill-rule="evenodd" />
<path d="
M 154.415 225.302
C 156.9 225.173 159.495 225.094 161.97 225.375
C 161.727 229.177 161.5 233.434 161.821 237.226
C 159.729 237.054 156.133 237.995 154.264 237.167
C 154.541 233.25 154.439 229.227 154.415 225.302 Z"
opacity="1" fill="rgb(122,135,147)" fill-rule="evenodd" />
<path d="
M 154.301 302.301
C 156.719 301.847 159.316 302.04 161.768 302.091
C 161.658 306.142 161.51 310.309 161.765 314.355
C 159.667 315.009 156.607 314.27 154.403 314.423
C 153.926 313.592 154.217 312.017 154.207 311.044
C 154.179 308.128 154.22 305.216 154.301 302.301 Z"
opacity="1" fill="rgb(125,139,150)" fill-rule="evenodd" />
<path d="
M 154.337 317.797
C 156.801 317.603 159.28 317.496 161.751 317.649
C 161.695 321.669 161.655 325.708 161.731 329.727
C 161.257 329.508 160.274 329.699 159.748 329.69
C 157.914 329.659 156.056 329.597 154.226 329.656
C 154.067 325.715 154.053 321.731 154.337 317.797 Z"
opacity="1" fill="rgb(125,139,149)" fill-rule="evenodd" />
<path d="
M 154.31 333.331
C 155.493 332.493 160.429 332.448 161.632 333.221
C 161.742 337.201 161.52 341.196 161.629 345.181
C 159.177 345.32 156.677 345.072 154.22 345.143
C 154.291 341.209 153.969 337.26 154.31 333.331 Z"
opacity="1" fill="rgb(123,138,148)" fill-rule="evenodd" />
<path d="
M 154.352 348.346
C 156.72 348.315 159.082 348.279 161.452 348.316
C 161.975 352.116 161.52 356.572 161.343 360.414
C 159.204 361.049 156.423 360.546 154.197 360.603
C 154.231 356.622 153.576 352.269 154.352 348.346 Z"
opacity="1" fill="rgb(119,135,151)" fill-rule="evenodd" />
<path d="
M 165.015 226.099
C 165.023 225.934 165.032 225.769 165.04 225.604
C 166.604 224.87 168.792 225.245 170.506 225.255
C 171.084 225.259 171.845 225.099 172.349 225.399
C 172.53 229.138 171.513 233.523 172.239 237.173
C 169.876 237.314 167.394 237.319 165.03 237.201
C 165.154 233.513 164.959 229.795 165.015 226.099 Z"
opacity="1" fill="rgb(125,137,149)" fill-rule="evenodd" />
<path d="
M 164.871 302.393
C 166.517 301.399 170.219 302.017 172.118 302.206
C 172.168 306.218 172.011 310.262 172.129 314.267
C 169.798 314.576 167.299 314.34 164.948 314.401
C 164.415 313.891 164.711 312.239 164.721 311.491
C 164.761 308.453 164.745 305.43 164.871 302.393 Z"
opacity="1" fill="rgb(125,138,148)" fill-rule="evenodd" />
<path d="
M 164.789 317.758
C 167.079 317.352 169.834 317.322 172.128 317.728
C 171.888 320.671 172.221 323.675 171.995 326.629
C 171.923 327.58 172.246 328.858 171.879 329.746
C 169.541 329.674 167.036 330.014 164.722 329.678
C 164.655 325.708 164.556 321.724 164.789 317.758 Z"
opacity="1" fill="rgb(124,138,149)" fill-rule="evenodd" />
<path d="
M 164.879 332.85
C 167.198 332.847 169.675 332.64 171.971 333.014
C 171.988 336.992 171.954 340.952 171.871 344.926
C 170.11 345.882 166.595 345.114 164.591 345.274
C 164.601 341.515 163.656 336.428 164.879 332.85 Z"
opacity="1" fill="rgb(123,136,149)" fill-rule="evenodd" />
<path d="
M 224.706 289.207
C 227.502 289.112 230.293 289.248 233.09 289.292
C 234.185 289.31 235.9 288.943 236.877 289.406
C 237.554 292.36 238.19 295.032 240.286 297.372
C 244.324 301.876 253.025 301.779 258.495 301.219
C 264.933 300.56 272.201 297.522 271.304 289.761
C 270.435 282.24 259.221 282.32 253.686 281.478
C 243.823 279.977 231.44 278.517 227.579 267.661
C 226.857 265.631 226.436 263.436 226.282 261.29
C 226.11 258.886 226.191 256.415 226.658 254.048
C 227.017 252.234 227.605 250.507 228.41 248.843
C 233.507 238.319 246.745 237.399 257.016 238.089
C 263.676 238.536 270.223 239.798 275.529 244.183
C 280.616 248.386 281.401 253.622 282.739 259.668
C 278.474 260.203 273.978 259.804 269.689 259.771
C 269.628 249.951 257.815 248.812 250.433 249.35
C 248.684 249.477 246.869 249.711 245.202 250.271
C 240.705 251.785 237.798 255.844 238.751 260.7
C 240.15 267.832 250.384 268.371 256.16 269.051
C 265.454 270.146 278.576 271.6 282.458 281.678
C 283.556 284.529 283.859 287.641 283.838 290.669
C 283.819 293.25 283.588 295.811 282.745 298.267
C 278.376 310.993 262.258 312.89 250.747 312.365
C 248.47 312.261 246.229 312.014 243.979 311.658
C 239.777 310.992 235.561 309.463 232.221 306.769
C 226.783 302.382 225.29 295.79 224.706 289.207 Z"
opacity="1" fill="rgb(251,252,253)" fill-rule="evenodd" />
<path d="
M 225.375 331.716
C 230.746 331.512 236.123 331.575 241.504 331.673
C 247.367 331.781 252.87 331.795 258.097 334.871
C 272.423 343.302 272.551 366.746 258.659 375.572
C 248.925 381.756 236.322 378.48 225.48 379.344
C 225.125 377.491 225.375 375.389 225.381 373.507
C 225.393 370.007 225.389 366.508 225.388 363.009
C 225.385 352.58 225.189 342.141 225.375 331.716 Z
M 233.953 339.32
C 233.692 347.118 233.908 354.956 233.892 362.759
C 233.887 364.883 233.887 367.005 233.898 369.128
C 233.901 369.822 233.685 371.114 234.029 371.72
C 240.553 371.101 247.841 373.091 253.628 369.019
C 262.389 362.853 262.371 347.24 253.113 341.581
C 247.767 338.315 240.006 338.762 233.953 339.32 Z"
opacity="1" fill="rgb(252,252,253)" fill-rule="evenodd" />
<path d="
M 285.034 332.634
C 285.106 332.02 285.054 332.39 285.222 331.53
C 288.031 331.703 290.948 331.71 293.766 331.643
C 293.179 341.525 293.675 351.599 293.682 361.5
C 293.685 365.334 293.706 369.168 293.704 373.002
C 293.702 375.009 293.445 377.246 293.76 379.226
C 290.951 379.358 287.892 379.525 285.097 379.246
C 285.443 372.102 285.106 364.835 285.092 357.677
C 285.076 349.346 285.255 340.945 285.034 332.634 Z"
opacity="1" fill="rgb(252,252,253)" fill-rule="evenodd" />
<path d="
M 308.416 352.099
C 308.945 349.915 309.17 347.728 310.035 345.628
C 312.279 340.184 316.562 335.608 321.951 333.2
C 332.425 328.521 345.711 331.015 352.835 340.19
C 354.353 342.146 356.44 345.066 356.747 347.594
C 354.217 346.749 350.338 347.54 347.696 347.671
C 345.247 343.91 342.695 340.939 338.245 339.557
C 323.903 335.102 311.764 350.816 318.603 363.895
C 322.572 371.483 332.311 373.967 339.923 370.505
C 342.493 369.337 344.758 367.491 346.408 365.195
C 347.013 364.355 347.947 363.048 347.732 361.959
C 346.115 361.106 343.808 361.468 342.006 361.446
C 338.052 361.4 334.03 361.197 330.083 361.383
C 329.903 358.835 329.934 356.303 329.937 353.747
C 336.273 353.484 342.659 353.8 349.001 353.799
C 351.348 353.798 355.084 353.106 357.26 354.005
C 357.049 360.412 355.962 367.05 351.445 371.957
C 341.468 382.797 322.521 382.64 313.195 371.02
C 309.042 365.846 307.57 358.59 308.416 352.099 Z"
opacity="1" fill="rgb(252,253,253)" fill-rule="evenodd" />
<path d="
M 308.875 238.835
C 312.296 238.723 316.703 237.998 320.028 238.855
C 322.855 241.967 324.943 245.948 327.265 249.448
C 331.336 255.583 335.554 261.622 339.621 267.759
C 341.846 271.118 343.886 275.228 346.687 278.129
C 347.223 278.122 348.034 276.214 348.315 275.755
C 349.853 273.247 351.552 270.834 353.153 268.366
C 357.257 262.042 361.473 255.789 365.657 249.518
C 368.037 245.951 370.048 241.879 372.965 238.723
C 376.768 238.595 380.813 238.635 384.612 238.872
C 384.875 242.705 384.613 246.656 384.613 250.504
C 384.613 258.833 384.578 267.163 384.555 275.492
C 384.523 287.391 385.318 299.573 384.457 311.434
C 380.451 311.388 376.098 311.109 372.126 311.579
C 371.671 310.042 371.965 308.106 371.965 306.516
C 371.966 303.516 371.95 300.516 371.938 297.516
C 371.894 286.444 372.523 275.042 371.574 264.023
C 365.327 272.724 359.643 281.806 353.637 290.685
C 352.067 293.007 350.552 295.366 348.973 297.682
C 348.278 298.701 347.638 299.951 346.481 300.5
C 344.117 299.689 342.258 295.3 340.959 293.325
C 336.385 286.373 331.887 279.371 327.278 272.444
C 325.817 270.249 324.444 267.951 322.865 265.843
C 322.444 265.281 322.45 263.931 321.758 264.05
C 321.667 264.065 321.585 266.26 321.587 266.555
C 321.606 269.37 321.607 272.185 321.608 275.001
C 321.61 283.501 321.703 292.002 321.674 300.502
C 321.665 303.001 321.676 305.5 321.627 307.998
C 321.609 308.97 321.818 310.352 321.442 311.25
C 317.318 311.154 313.125 311.124 309.004 311.339
C 308.417 309.189 308.825 306.485 308.813 304.267
C 308.789 299.348 308.849 294.427 308.835 289.508
C 308.788 272.642 309.303 255.685 308.875 238.835 Z"
opacity="1" fill="rgb(253,253,254)" fill-rule="evenodd" />
<path d="
M 372.532 332.629
C 372.59 332.044 372.524 332.385 372.821 331.628
C 375.541 331.618 378.343 331.446 381.051 331.749
C 381.24 342.31 381.146 352.928 381.146 363.506
C 381.146 368.68 380.62 374.196 381.247 379.332
C 378.382 379.458 375.457 379.333 372.59 379.257
C 372.882 374.046 372.608 368.721 372.589 363.496
C 372.568 357.69 372.759 351.85 372.556 346.048
C 372.402 341.645 372.127 337.022 372.532 332.629 Z"
opacity="1" fill="rgb(251,252,253)" fill-rule="evenodd" />
<path d="
M 396.164 331.657
C 408.667 331.397 421.215 331.699 433.722 331.735
C 434.253 333.866 434.117 336.94 434.027 339.152
C 432.779 339.578 430.842 339.238 429.508 339.238
C 426.128 339.239 422.747 339.282 419.371 339.336
C 418.814 340.706 419.055 342.051 419.063 343.499
C 419.079 346.167 419.089 348.835 419.09 351.503
C 419.094 360.69 418.506 370.096 419.269 379.255
C 416.404 379.294 413.528 379.271 410.664 379.221
C 411.014 375.367 410.761 371.375 410.766 367.5
C 410.779 358.149 410.475 348.744 410.79 339.4
C 410.123 338.81 407.907 339.227 407.009 339.233
C 404.505 339.251 402.001 339.22 399.498 339.255
C 398.568 339.268 396.953 339.641 396.163 339.194
C 396.25 336.703 396.225 334.152 396.164 331.657 Z"
opacity="1" fill="rgb(253,253,254)" fill-rule="evenodd" />
<path d="
M 412.084 239.624
C 412.091 239.392 412.098 239.161 412.105 238.929
C 414.127 238.463 416.439 238.794 418.507 238.836
C 420.633 238.879 422.845 238.663 424.955 238.934
C 424.3 245.519 424.795 252.39 424.786 259.006
C 424.77 271.005 424.728 283.004 424.737 295.003
C 424.741 300.445 425.235 306.171 424.688 311.583
C 420.629 311.614 416.298 311.105 412.275 311.53
C 411.577 304.317 412.147 296.75 412.14 289.5
C 412.124 272.883 412.487 256.235 412.084 239.624 Z"
opacity="1" fill="rgb(251,251,253)" fill-rule="evenodd" />
<path d="
M 441.99 378.592
C 448.918 363.273 454.62 347.308 460.92 331.715
C 464.412 331.29 468.148 331.667 471.663 331.694
C 472.42 332.5 472.731 333.835 473.165 334.845
C 474.274 337.431 475.256 340.079 476.291 342.695
C 479.59 351.03 483.006 359.33 486.186 367.71
C 487.218 370.427 488.303 373.153 489.486 375.808
C 489.871 376.674 490.99 378.4 490.947 379.279
C 488.124 379.119 484.795 379.128 481.986 379.456
C 480.161 377.096 479.178 373.174 477.982 370.412
C 470.326 370.374 462.648 370.508 454.994 370.359
C 453.428 371.827 452.782 375.08 451.968 377.053
C 451.71 377.676 451.52 378.961 451.001 379.373
C 447.909 379.41 444.747 379.467 441.661 379.291
C 441.771 379.058 441.88 378.825 441.99 378.592 Z
M 457.959 362.061
C 457.735 362.85 457.826 362.468 457.679 363.205
C 461.378 362.856 465.282 363.211 469.001 363.253
C 470.944 363.275 473.377 362.931 475.262 363.35
C 474.025 358.63 471.624 354.045 469.917 349.469
C 468.993 346.993 468.153 343.577 466.377 341.6
C 463.133 348.09 460.167 355.146 457.959 362.061 Z"
opacity="1" fill="rgb(249,250,252)" fill-rule="evenodd" />
<path d="
M 446.423 238.742
C 460.258 239.215 474.158 238.745 488.003 238.819
C 491.838 238.839 495.672 238.862 499.506 238.876
C 501.289 238.882 503.636 238.479 505.342 238.989
C 505.183 242.721 505.439 246.475 505.363 250.21
C 497.959 250.862 490.226 250.212 482.789 250.271
C 482.361 253.016 482.629 255.948 482.635 258.721
C 482.645 263.482 482.664 268.243 482.673 273.004
C 482.698 285.741 482.183 298.58 482.653 311.304
C 478.836 312.299 474.136 310.984 470.203 311.283
C 470.668 303.256 470.148 295.047 470.138 287
C 470.123 274.742 470.427 262.434 470.051 250.19
C 464.562 250.46 459.003 250.236 453.506 250.232
C 451.585 250.231 448.082 250.911 446.344 250.147
C 446.54 246.406 446.626 242.478 446.423 238.742 Z"
opacity="1" fill="rgb(252,253,254)" fill-rule="evenodd" />
<path d="
M 504.868 331.713
C 507.636 331.617 510.455 331.441 513.221 331.636
C 513.553 332.463 513.341 333.608 513.346 334.501
C 513.357 336.668 513.325 338.837 513.314 341.005
C 513.279 348.005 513.289 355.006 513.287 362.006
C 513.287 364.34 513.306 366.676 513.299 369.01
C 513.296 369.825 513.022 371.219 513.486 371.887
C 521.039 371.078 528.894 372.044 536.475 371.921
C 536.471 374.324 536.373 376.857 536.586 379.251
C 526.072 379.377 515.471 378.768 504.967 379.349
C 504.505 377.981 504.835 375.948 504.839 374.498
C 504.848 371.167 504.854 367.835 504.859 364.503
C 504.873 353.575 504.666 342.638 504.868 331.713 Z"
opacity="1" fill="rgb(253,253,254)" fill-rule="evenodd" />
<path d="
M 527.533 240.126
C 527.587 239.513 527.568 239.876 527.556 239.035
C 529.137 238.605 530.885 238.888 532.506 238.896
C 535.104 238.907 537.827 238.668 540.407 238.964
C 539.501 249.199 540.519 259.755 540.351 270.029
C 541.167 270.398 542.436 270.191 543.325 270.191
C 545.55 270.192 547.775 270.188 550 270.186
C 557.922 270.18 565.948 270.607 573.858 270.199
C 574.58 259.893 574.001 249.23 573.959 238.895
C 577.875 238.18 582.719 238.589 586.686 238.862
C 587.166 240.178 586.742 242.113 586.743 243.503
C 586.746 247.336 586.746 251.169 586.741 255.002
C 586.725 268.004 586.647 281.005 586.631 294.007
C 586.626 298.307 586.59 302.607 586.58 306.906
C 586.578 308.024 587.071 310.587 586.27 311.453
C 582.249 311.247 577.901 311.092 573.892 311.414
C 573.536 308.513 573.799 305.422 573.794 302.499
C 573.782 295.693 573.986 288.861 573.867 282.06
C 572.975 281.664 571.575 281.929 570.603 281.948
C 568.398 281.992 566.191 282.032 563.986 282.034
C 556.22 282.041 547.953 281.103 540.25 282.206
C 540.197 291.859 539.857 301.646 540.32 311.284
C 536.103 311.683 531.762 310.84 527.564 311.372
C 526.65 300.058 527.513 288.369 527.463 277.01
C 527.428 269.01 527.459 261.009 527.47 253.008
C 527.476 248.756 527.161 244.361 527.533 240.126 Z"
opacity="1" fill="rgb(252,253,254)" fill-rule="evenodd" />
<path d="
M 548.884 366.339
C 551.357 365.345 554.934 366.411 557.579 366.237
C 559.194 373.158 566.849 373.155 572.616 372.234
C 575.916 371.708 579.641 369.582 579.143 365.687
C 578.456 360.313 570.883 360.422 566.818 359.94
C 563.075 359.497 558.917 359.012 555.616 357.059
C 550.143 353.82 548.581 346.294 550.296 340.503
C 552.224 333.989 558.442 331.634 564.603 331.145
C 573.143 330.467 582.571 332.043 585.789 341.128
C 586.237 342.391 586.7 343.945 586.794 345.285
C 584.712 345.379 582.593 345.291 580.509 345.215
C 579.894 345.192 578.838 345.447 578.331 345.139
C 577.284 338.555 569.249 337.444 563.717 338.642
C 560.114 339.422 557.224 342.401 557.985 346.272
C 558.929 351.074 564.738 351.262 568.577 351.833
C 574.946 352.781 584.247 353.318 586.644 360.651
C 587.051 361.897 587.305 363.211 587.385 364.518
C 587.482 366.091 587.458 367.765 587.042 369.295
C 584.368 379.141 573.52 380.504 564.736 379.863
C 560.875 379.582 556.672 378.763 553.625 376.206
C 550.57 373.643 549.606 370.082 548.884 366.339 Z"
opacity="1" fill="rgb(251,252,252)" fill-rule="evenodd" />

</svg>